0
SECTION
2
HEADER
9
$INSUNITS
70
4
0
ENDSEC
0
SECTION
2
TABLES
0
TABLE
2
LTYPE
0
LTYPE
72
65
70
64
2
CONTINUOUS
3
______
73
0
40
0
0
ENDTAB
0
TABLE
2
LAYER
0
ENDTAB
0
ENDSEC
0
SECTION
2
ENTITIES
0
LINE
8
0
10
-6.9
20
-6.9
11
6.9
21
-6.9
0
LINE
8
0
10
6.9
20
-6.9
11
6.9
21
6.9
0
LINE
8
0
10
6.9
20
6.9
11
-6.9
21
6.9
0
LINE
8
0
10
-6.9
20
6.9
11
-6.9
21
-6.9
0
LINE
8
0
10
-6.9
20
11.1
11
6.9
21
11.1
0
LINE
8
0
10
6.9
20
11.1
11
6.9
21
24.9
0
LINE
8
0
10
6.9
20
24.9
11
-6.9
21
24.9
0
LINE
8
0
10
-6.9
20
24.9
11
-6.9
21
11.1
0
LINE
8
0
10
-6.9
20
29.1
11
6.9
21
29.1
0
LINE
8
0
10
6.9
20
29.1
11
6.9
21
42.9
0
LINE
8
0
10
6.9
20
42.9
11
-6.9
21
42.9
0
LINE
8
0
10
-6.9
20
42.9
11
-6.9
21
29.1
0
LINE
8
0
10
11.1
20
-6.9
11
24.9
21
-6.9
0
LINE
8
0
10
24.9
20
-6.9
11
24.9
21
6.9
0
LINE
8
0
10
24.9
20
6.9
11
11.1
21
6.9
0
LINE
8
0
10
11.1
20
6.9
11
11.1
21
-6.9
0
LINE
8
0
10
11.1
20
11.1
11
24.9
21
11.1
0
LINE
8
0
10
24.9
20
11.1
11
24.9
21
24.9
0
LINE
8
0
10
24.9
20
24.9
11
11.1
21
24.9
0
LINE
8
0
10
11.1
20
24.9
11
11.1
21
11.1
0
LINE
8
0
10
11.1
20
29.1
11
24.9
21
29.1
0
LINE
8
0
10
24.9
20
29.1
11
24.9
21
42.9
0
LINE
8
0
10
24.9
20
42.9
11
11.1
21
42.9
0
LINE
8
0
10
11.1
20
42.9
11
11.1
21
29.1
0
LINE
8
0
10
29.1
20
5.1
11
42.9
21
5.1
0
LINE
8
0
10
42.9
20
5.1
11
42.9
21
18.9
0
LINE
8
0
10
42.9
20
18.9
11
29.1
21
18.9
0
LINE
8
0
10
29.1
20
18.9
11
29.1
21
5.1
0
LINE
8
0
10
29.1
20
23.1
11
42.9
21
23.1
0
LINE
8
0
10
42.9
20
23.1
11
42.9
21
36.9
0
LINE
8
0
10
42.9
20
36.9
11
29.1
21
36.9
0
LINE
8
0
10
29.1
20
36.9
11
29.1
21
23.1
0
LINE
8
0
10
29.1
20
41.1
11
42.9
21
41.1
0
LINE
8
0
10
42.9
20
41.1
11
42.9
21
54.9
0
LINE
8
0
10
42.9
20
54.9
11
29.1
21
54.9
0
LINE
8
0
10
29.1
20
54.9
11
29.1
21
41.1
0
LINE
8
0
10
47.1
20
10.1
11
60.9
21
10.1
0
LINE
8
0
10
60.9
20
10.1
11
60.9
21
23.9
0
LINE
8
0
10
60.9
20
23.9
11
47.1
21
23.9
0
LINE
8
0
10
47.1
20
23.9
11
47.1
21
10.1
0
LINE
8
0
10
47.1
20
28.1
11
60.9
21
28.1
0
LINE
8
0
10
60.9
20
28.1
11
60.9
21
41.9
0
LINE
8
0
10
60.9
20
41.9
11
47.1
21
41.9
0
LINE
8
0
10
47.1
20
41.9
11
47.1
21
28.1
0
LINE
8
0
10
47.1
20
46.1
11
60.9
21
46.1
0
LINE
8
0
10
60.9
20
46.1
11
60.9
21
59.9
0
LINE
8
0
10
60.9
20
59.9
11
47.1
21
59.9
0
LINE
8
0
10
47.1
20
59.9
11
47.1
21
46.1
0
LINE
8
0
10
65.1
20
4.1
11
78.9
21
4.1
0
LINE
8
0
10
78.9
20
4.1
11
78.9
21
17.9
0
LINE
8
0
10
78.9
20
17.9
11
65.1
21
17.9
0
LINE
8
0
10
65.1
20
17.9
11
65.1
21
4.1
0
LINE
8
0
10
65.1
20
22.1
11
78.9
21
22.1
0
LINE
8
0
10
78.9
20
22.1
11
78.9
21
35.9
0
LINE
8
0
10
78.9
20
35.9
11
65.1
21
35.9
0
LINE
8
0
10
65.1
20
35.9
11
65.1
21
22.1
0
LINE
8
0
10
65.1
20
40.1
11
78.9
21
40.1
0
LINE
8
0
10
78.9
20
40.1
11
78.9
21
53.9
0
LINE
8
0
10
78.9
20
53.9
11
65.1
21
53.9
0
LINE
8
0
10
65.1
20
53.9
11
65.1
21
40.1
0
LINE
8
0
10
83.1
20
4.1
11
96.9
21
4.1
0
LINE
8
0
10
96.9
20
4.1
11
96.9
21
17.9
0
LINE
8
0
10
96.9
20
17.9
11
83.1
21
17.9
0
LINE
8
0
10
83.1
20
17.9
11
83.1
21
4.1
0
LINE
8
0
10
83.1
20
22.1
11
96.9
21
22.1
0
LINE
8
0
10
96.9
20
22.1
11
96.9
21
35.9
0
LINE
8
0
10
96.9
20
35.9
11
83.1
21
35.9
0
LINE
8
0
10
83.1
20
35.9
11
83.1
21
22.1
0
LINE
8
0
10
83.1
20
40.1
11
96.9
21
40.1
0
LINE
8
0
10
96.9
20
40.1
11
96.9
21
53.9
0
LINE
8
0
10
96.9
20
53.9
11
83.1
21
53.9
0
LINE
8
0
10
83.1
20
53.9
11
83.1
21
40.1
0
LINE
8
0
10
78.1
20
-34.9
11
91.9
21
-34.9
0
LINE
8
0
10
91.9
20
-34.9
11
91.9
21
-21.1
0
LINE
8
0
10
91.9
20
-21.1
11
78.1
21
-21.1
0
LINE
8
0
10
78.1
20
-21.1
11
78.1
21
-34.9
0
LINE
8
0
10
78.1
20
-16.9
11
91.9
21
-16.9
0
LINE
8
0
10
91.9
20
-16.9
11
91.9
21
-3.1
0
LINE
8
0
10
91.9
20
-3.1
11
78.1
21
-3.1
0
LINE
8
0
10
78.1
20
-3.1
11
78.1
21
-16.9
0
LINE
8
0
10
96.1
20
-34.9
11
109.9
21
-34.9
0
LINE
8
0
10
109.9
20
-34.9
11
109.9
21
-21.1
0
LINE
8
0
10
109.9
20
-21.1
11
96.1
21
-21.1
0
LINE
8
0
10
96.1
20
-21.1
11
96.1
21
-34.9
0
LINE
8
0
10
96.1
20
-16.9
11
109.9
21
-16.9
0
LINE
8
0
10
109.9
20
-16.9
11
109.9
21
-3.1
0
LINE
8
0
10
109.9
20
-3.1
11
96.1
21
-3.1
0
LINE
8
0
10
96.1
20
-3.1
11
96.1
21
-16.9
0
ENDSEC
0
EOF