0
SECTION
2
HEADER
9
$INSUNITS
70
4
0
ENDSEC
0
SECTION
2
TABLES
0
TABLE
2
LTYPE
0
LTYPE
72
65
70
64
2
CONTINUOUS
3
______
73
0
40
0
0
ENDTAB
0
TABLE
2
LAYER
0
ENDTAB
0
ENDSEC
0
SECTION
2
ENTITIES
0
LINE
8
0
10
-8.4507396
20
-4.8790368
11
4.8790368
21
-8.4507396
0
LINE
8
0
10
4.8790368
20
-8.4507396
11
8.4507396
21
4.8790368
0
LINE
8
0
10
8.4507396
20
4.8790368
11
-4.8790368
21
8.4507396
0
LINE
8
0
10
-4.8790368
20
8.4507396
11
-8.4507396
21
-4.8790368
0
LINE
8
0
10
-3.7919968
20
12.5076281
11
9.5377796
21
8.9359253
0
LINE
8
0
10
9.5377796
20
8.9359253
11
13.1094824
21
22.2657017
0
LINE
8
0
10
13.1094824
20
22.2657017
11
-0.220294
21
25.8374045
0
LINE
8
0
10
-0.220294
20
25.8374045
11
-3.7919968
21
12.5076281
0
LINE
8
0
10
0.866746
20
29.894293
11
14.1965224
21
26.3225902
0
LINE
8
0
10
14.1965224
20
26.3225902
11
17.7682252
21
39.6523666
0
LINE
8
0
10
17.7682252
20
39.6523666
11
4.4384488
21
43.2240694
0
LINE
8
0
10
4.4384488
20
43.2240694
11
0.866746
21
29.894293
0
LINE
8
0
10
8.9359253
20
-9.5377796
11
22.2657017
21
-13.1094824
0
LINE
8
0
10
22.2657017
20
-13.1094824
11
25.8374045
21
0.220294
0
LINE
8
0
10
25.8374045
20
0.220294
11
12.5076281
21
3.7919968
0
LINE
8
0
10
12.5076281
20
3.7919968
11
8.9359253
21
-9.5377796
0
LINE
8
0
10
13.5946681
20
7.8488853
11
26.9244445
21
4.2771825
0
LINE
8
0
10
26.9244445
20
4.2771825
11
30.4961473
21
17.6069589
0
LINE
8
0
10
30.4961473
20
17.6069589
11
17.1663709
21
21.1786617
0
LINE
8
0
10
17.1663709
20
21.1786617
11
13.5946681
21
7.8488853
0
LINE
8
0
10
18.2534109
20
25.2355502
11
31.5831873
21
21.6638474
0
LINE
8
0
10
31.5831873
20
21.6638474
11
35.1548901
21
34.9936238
0
LINE
8
0
10
35.1548901
20
34.9936238
11
21.8251137
21
38.5653266
0
LINE
8
0
10
21.8251137
20
38.5653266
11
18.2534109
21
25.2355502
0
LINE
8
0
10
29.4284187
20
-2.6054125
11
42.7581951
21
-6.1771153
0
LINE
8
0
10
42.7581951
20
-6.1771153
11
46.3298979
21
7.1526611
0
LINE
8
0
10
46.3298979
20
7.1526611
11
33.0001215
21
10.7243639
0
LINE
8
0
10
33.0001215
20
10.7243639
11
29.4284187
21
-2.6054125
0
LINE
8
0
10
34.0871615
20
14.7812524
11
47.4169379
21
11.2095496
0
LINE
8
0
10
47.4169379
20
11.2095496
11
50.9886407
21
24.539326
0
LINE
8
0
10
50.9886407
20
24.539326
11
37.6588643
21
28.1110288
0
LINE
8
0
10
37.6588643
20
28.1110288
11
34.0871615
21
14.7812524
0
LINE
8
0
10
38.7459043
20
32.1679173
11
52.0756807
21
28.5962145
0
LINE
8
0
10
52.0756807
20
28.5962145
11
55.6473835
21
41.9259909
0
LINE
8
0
10
55.6473835
20
41.9259909
11
42.3176071
21
45.4976937
0
LINE
8
0
10
42.3176071
20
45.4976937
11
38.7459043
21
32.1679173
0
LINE
8
0
10
48.1091788
20
-2.4345262
11
61.4389552
21
-6.006229
0
LINE
8
0
10
61.4389552
20
-6.006229
11
65.010658
21
7.3235474
0
LINE
8
0
10
65.010658
20
7.3235474
11
51.6808816
21
10.8952502
0
LINE
8
0
10
51.6808816
20
10.8952502
11
48.1091788
21
-2.4345262
0
LINE
8
0
10
52.7679216
20
14.9521387
11
66.097698
21
11.3804359
0
LINE
8
0
10
66.097698
20
11.3804359
11
69.6694008
21
24.7102123
0
LINE
8
0
10
69.6694008
20
24.7102123
11
56.3396244
21
28.2819151
0
LINE
8
0
10
56.3396244
20
28.2819151
11
52.7679216
21
14.9521387
0
LINE
8
0
10
57.4266644
20
32.3388037
11
70.7564408
21
28.7671009
0
LINE
8
0
10
70.7564408
20
28.7671009
11
74.3281436
21
42.0968773
0
LINE
8
0
10
74.3281436
20
42.0968773
11
60.9983672
21
45.6685801
0
LINE
8
0
10
60.9983672
20
45.6685801
11
57.4266644
21
32.3388037
0
LINE
8
0
10
63.9429294
20
-12.8888239
11
77.2727058
21
-16.4605267
0
LINE
8
0
10
77.2727058
20
-16.4605267
11
80.8444086
21
-3.1307503
0
LINE
8
0
10
80.8444086
20
-3.1307503
11
67.5146322
21
0.4409525
0
LINE
8
0
10
67.5146322
20
0.4409525
11
63.9429294
21
-12.8888239
0
LINE
8
0
10
68.6016722
20
4.497841
11
81.9314486
21
0.9261382
0
LINE
8
0
10
81.9314486
20
0.9261382
11
85.5031514
21
14.2559146
0
LINE
8
0
10
85.5031514
20
14.2559146
11
72.173375
21
17.8276174
0
LINE
8
0
10
72.173375
20
17.8276174
11
68.6016722
21
4.497841
0
LINE
8
0
10
73.260415
20
21.8845059
11
86.5901914
21
18.3128031
0
LINE
8
0
10
86.5901914
20
18.3128031
11
90.1618942
21
31.6425795
0
LINE
8
0
10
90.1618942
20
31.6425795
11
76.8321178
21
35.2142823
0
LINE
8
0
10
76.8321178
20
35.2142823
11
73.260415
21
21.8845059
0
LINE
8
0
10
81.3295943
20
-17.5475668
11
94.6593707
21
-21.1192696
0
LINE
8
0
10
94.6593707
20
-21.1192696
11
98.2310735
21
-7.7894932
0
LINE
8
0
10
98.2310735
20
-7.7894932
11
84.9012971
21
-4.2177904
0
LINE
8
0
10
84.9012971
20
-4.2177904
11
81.3295943
21
-17.5475668
0
LINE
8
0
10
85.9883371
20
-0.1609019
11
99.3181135
21
-3.7326047
0
LINE
8
0
10
99.3181135
20
-3.7326047
11
102.8898163
21
9.5971717
0
LINE
8
0
10
102.8898163
20
9.5971717
11
89.5600399
21
13.1688745
0
LINE
8
0
10
89.5600399
20
13.1688745
11
85.9883371
21
-0.1609019
0
LINE
8
0
10
90.6470799
20
17.225763
11
103.9768563
21
13.6540602
0
LINE
8
0
10
103.9768563
20
13.6540602
11
107.5485591
21
26.9838366
0
LINE
8
0
10
107.5485591
20
26.9838366
11
94.2187827
21
30.5555394
0
LINE
8
0
10
94.2187827
20
30.5555394
11
90.6470799
21
17.225763
0
LINE
8
0
10
65.2469355
20
-50.7400137
11
76.5512337
21
-58.6553685
0
LINE
8
0
10
76.5512337
20
-58.6553685
11
84.4665885
21
-47.3510703
0
LINE
8
0
10
84.4665885
20
-47.3510703
11
73.1622903
21
-39.4357155
0
LINE
8
0
10
73.1622903
20
-39.4357155
11
65.2469355
21
-50.7400137
0
LINE
8
0
10
75.5713114
20
-35.9952769
11
86.8756096
21
-43.9106317
0
LINE
8
0
10
86.8756096
20
-43.9106317
11
94.7909644
21
-32.6063335
0
LINE
8
0
10
94.7909644
20
-32.6063335
11
83.4866662
21
-24.6909787
0
LINE
8
0
10
83.4866662
20
-24.6909787
11
75.5713114
21
-35.9952769
0
LINE
8
0
10
79.9916724
20
-61.0643895
11
91.2959706
21
-68.9797443
0
LINE
8
0
10
91.2959706
20
-68.9797443
11
99.2113254
21
-57.6754461
0
LINE
8
0
10
99.2113254
20
-57.6754461
11
87.9070272
21
-49.7600913
0
LINE
8
0
10
87.9070272
20
-49.7600913
11
79.9916724
21
-61.0643895
0
LINE
8
0
10
90.3160482
20
-46.3196527
11
101.6203464
21
-54.2350075
0
LINE
8
0
10
101.6203464
20
-54.2350075
11
109.5357012
21
-42.9307093
0
LINE
8
0
10
109.5357012
20
-42.9307093
11
98.231403
21
-35.0153545
0
LINE
8
0
10
98.231403
20
-35.0153545
11
90.3160482
21
-46.3196527
0
LINE
8
0
10
339.2117786
20
-8.4507396
11
352.541555
21
-4.8790368
0
LINE
8
0
10
352.541555
20
-4.8790368
11
348.9698522
21
8.4507396
0
LINE
8
0
10
348.9698522
20
8.4507396
11
335.6400758
21
4.8790368
0
LINE
8
0
10
335.6400758
20
4.8790368
11
339.2117786
21
-8.4507396
0
LINE
8
0
10
334.5530358
20
8.9359253
11
347.8828122
21
12.5076281
0
LINE
8
0
10
347.8828122
20
12.5076281
11
344.3111094
21
25.8374045
0
LINE
8
0
10
344.3111094
20
25.8374045
11
330.981333
21
22.2657017
0
LINE
8
0
10
330.981333
20
22.2657017
11
334.5530358
21
8.9359253
0
LINE
8
0
10
329.894293
20
26.3225902
11
343.2240694
21
29.894293
0
LINE
8
0
10
343.2240694
20
29.894293
11
339.6523666
21
43.2240694
0
LINE
8
0
10
339.6523666
20
43.2240694
11
326.3225902
21
39.6523666
0
LINE
8
0
10
326.3225902
20
39.6523666
11
329.894293
21
26.3225902
0
LINE
8
0
10
321.8251137
20
-13.1094824
11
335.1548901
21
-9.5377796
0
LINE
8
0
10
335.1548901
20
-9.5377796
11
331.5831873
21
3.7919968
0
LINE
8
0
10
331.5831873
20
3.7919968
11
318.2534109
21
0.220294
0
LINE
8
0
10
318.2534109
20
0.220294
11
321.8251137
21
-13.1094824
0
LINE
8
0
10
317.1663709
20
4.2771825
11
330.4961473
21
7.8488853
0
LINE
8
0
10
330.4961473
20
7.8488853
11
326.9244445
21
21.1786617
0
LINE
8
0
10
326.9244445
20
21.1786617
11
313.5946681
21
17.6069589
0
LINE
8
0
10
313.5946681
20
17.6069589
11
317.1663709
21
4.2771825
0
LINE
8
0
10
312.5076281
20
21.6638474
11
325.8374045
21
25.2355502
0
LINE
8
0
10
325.8374045
20
25.2355502
11
322.2657017
21
38.5653266
0
LINE
8
0
10
322.2657017
20
38.5653266
11
308.9359253
21
34.9936238
0
LINE
8
0
10
308.9359253
20
34.9936238
11
312.5076281
21
21.6638474
0
LINE
8
0
10
301.3326203
20
-6.1771153
11
314.6623967
21
-2.6054125
0
LINE
8
0
10
314.6623967
20
-2.6054125
11
311.0906939
21
10.7243639
0
LINE
8
0
10
311.0906939
20
10.7243639
11
297.7609175
21
7.1526611
0
LINE
8
0
10
297.7609175
20
7.1526611
11
301.3326203
21
-6.1771153
0
LINE
8
0
10
296.6738775
20
11.2095496
11
310.0036539
21
14.7812524
0
LINE
8
0
10
310.0036539
20
14.7812524
11
306.4319511
21
28.1110288
0
LINE
8
0
10
306.4319511
20
28.1110288
11
293.1021747
21
24.539326
0
LINE
8
0
10
293.1021747
20
24.539326
11
296.6738775
21
11.2095496
0
LINE
8
0
10
292.0151347
20
28.5962145
11
305.3449111
21
32.1679173
0
LINE
8
0
10
305.3449111
20
32.1679173
11
301.7732083
21
45.4976937
0
LINE
8
0
10
301.7732083
20
45.4976937
11
288.4434319
21
41.9259909
0
LINE
8
0
10
288.4434319
20
41.9259909
11
292.0151347
21
28.5962145
0
LINE
8
0
10
282.6518602
20
-6.006229
11
295.9816366
21
-2.4345262
0
LINE
8
0
10
295.9816366
20
-2.4345262
11
292.4099338
21
10.8952502
0
LINE
8
0
10
292.4099338
20
10.8952502
11
279.0801574
21
7.3235474
0
LINE
8
0
10
279.0801574
20
7.3235474
11
282.6518602
21
-6.006229
0
LINE
8
0
10
277.9931174
20
11.3804359
11
291.3228938
21
14.9521387
0
LINE
8
0
10
291.3228938
20
14.9521387
11
287.751191
21
28.2819151
0
LINE
8
0
10
287.751191
20
28.2819151
11
274.4214146
21
24.7102123
0
LINE
8
0
10
274.4214146
20
24.7102123
11
277.9931174
21
11.3804359
0
LINE
8
0
10
273.3343746
20
28.7671009
11
286.664151
21
32.3388037
0
LINE
8
0
10
286.664151
20
32.3388037
11
283.0924482
21
45.6685801
0
LINE
8
0
10
283.0924482
20
45.6685801
11
269.7626718
21
42.0968773
0
LINE
8
0
10
269.7626718
20
42.0968773
11
273.3343746
21
28.7671009
0
LINE
8
0
10
266.8181096
20
-16.4605267
11
280.147886
21
-12.8888239
0
LINE
8
0
10
280.147886
20
-12.8888239
11
276.5761832
21
0.4409525
0
LINE
8
0
10
276.5761832
20
0.4409525
11
263.2464068
21
-3.1307503
0
LINE
8
0
10
263.2464068
20
-3.1307503
11
266.8181096
21
-16.4605267
0
LINE
8
0
10
262.1593668
20
0.9261382
11
275.4891432
21
4.497841
0
LINE
8
0
10
275.4891432
20
4.497841
11
271.9174404
21
17.8276174
0
LINE
8
0
10
271.9174404
20
17.8276174
11
258.587664
21
14.2559146
0
LINE
8
0
10
258.587664
20
14.2559146
11
262.1593668
21
0.9261382
0
LINE
8
0
10
257.500624
20
18.3128031
11
270.8304004
21
21.8845059
0
LINE
8
0
10
270.8304004
20
21.8845059
11
267.2586976
21
35.2142823
0
LINE
8
0
10
267.2586976
20
35.2142823
11
253.9289212
21
31.6425795
0
LINE
8
0
10
253.9289212
20
31.6425795
11
257.500624
21
18.3128031
0
LINE
8
0
10
249.4314447
20
-21.1192696
11
262.7612211
21
-17.5475668
0
LINE
8
0
10
262.7612211
20
-17.5475668
11
259.1895183
21
-4.2177904
0
LINE
8
0
10
259.1895183
20
-4.2177904
11
245.8597419
21
-7.7894932
0
LINE
8
0
10
245.8597419
20
-7.7894932
11
249.4314447
21
-21.1192696
0
LINE
8
0
10
244.7727019
20
-3.7326047
11
258.1024783
21
-0.1609019
0
LINE
8
0
10
258.1024783
20
-0.1609019
11
254.5307755
21
13.1688745
0
LINE
8
0
10
254.5307755
20
13.1688745
11
241.2009991
21
9.5971717
0
LINE
8
0
10
241.2009991
20
9.5971717
11
244.7727019
21
-3.7326047
0
LINE
8
0
10
240.1139591
20
13.6540602
11
253.4437355
21
17.225763
0
LINE
8
0
10
253.4437355
20
17.225763
11
249.8720327
21
30.5555394
0
LINE
8
0
10
249.8720327
20
30.5555394
11
236.5422563
21
26.9838366
0
LINE
8
0
10
236.5422563
20
26.9838366
11
240.1139591
21
13.6540602
0
LINE
8
0
10
267.5395817
20
-58.6553685
11
278.8438799
21
-50.7400137
0
LINE
8
0
10
278.8438799
20
-50.7400137
11
270.9285251
21
-39.4357155
0
LINE
8
0
10
270.9285251
20
-39.4357155
11
259.6242269
21
-47.3510703
0
LINE
8
0
10
259.6242269
20
-47.3510703
11
267.5395817
21
-58.6553685
0
LINE
8
0
10
257.2152058
20
-43.9106317
11
268.519504
21
-35.9952769
0
LINE
8
0
10
268.519504
20
-35.9952769
11
260.6041492
21
-24.6909787
0
LINE
8
0
10
260.6041492
20
-24.6909787
11
249.299851
21
-32.6063335
0
LINE
8
0
10
249.299851
20
-32.6063335
11
257.2152058
21
-43.9106317
0
LINE
8
0
10
252.7948448
20
-68.9797443
11
264.099143
21
-61.0643895
0
LINE
8
0
10
264.099143
20
-61.0643895
11
256.1837882
21
-49.7600913
0
LINE
8
0
10
256.1837882
20
-49.7600913
11
244.87949
21
-57.6754461
0
LINE
8
0
10
244.87949
20
-57.6754461
11
252.7948448
21
-68.9797443
0
LINE
8
0
10
242.470469
20
-54.2350075
11
253.7747672
21
-46.3196527
0
LINE
8
0
10
253.7747672
20
-46.3196527
11
245.8594124
21
-35.0153545
0
LINE
8
0
10
245.8594124
20
-35.0153545
11
234.5551142
21
-42.9307093
0
LINE
8
0
10
234.5551142
20
-42.9307093
11
242.470469
21
-54.2350075
0
ENDSEC
0
EOF