0
SECTION
2
HEADER
9
$INSUNITS
70
4
0
ENDSEC
0
SECTION
2
TABLES
0
TABLE
2
LTYPE
0
LTYPE
72
65
70
64
2
CONTINUOUS
3
______
73
0
40
0
0
ENDTAB
0
TABLE
2
LAYER
0
ENDTAB
0
ENDSEC
0
SECTION
2
ENTITIES
0
LINE
8
0
10
-6.9
20
-6.9
11
6.9
21
-6.9
0
LINE
8
0
10
6.9
20
-6.9
11
6.9
21
6.9
0
LINE
8
0
10
6.9
20
6.9
11
-6.9
21
6.9
0
LINE
8
0
10
-6.9
20
6.9
11
-6.9
21
-6.9
0
LINE
8
0
10
-6.9
20
10.1
11
6.9
21
10.1
0
LINE
8
0
10
6.9
20
10.1
11
6.9
21
23.9
0
LINE
8
0
10
6.9
20
23.9
11
-6.9
21
23.9
0
LINE
8
0
10
-6.9
20
23.9
11
-6.9
21
10.1
0
LINE
8
0
10
-6.9
20
27.1
11
6.9
21
27.1
0
LINE
8
0
10
6.9
20
27.1
11
6.9
21
40.9
0
LINE
8
0
10
6.9
20
40.9
11
-6.9
21
40.9
0
LINE
8
0
10
-6.9
20
40.9
11
-6.9
21
27.1
0
LINE
8
0
10
11.1
20
-6.9
11
24.9
21
-6.9
0
LINE
8
0
10
24.9
20
-6.9
11
24.9
21
6.9
0
LINE
8
0
10
24.9
20
6.9
11
11.1
21
6.9
0
LINE
8
0
10
11.1
20
6.9
11
11.1
21
-6.9
0
LINE
8
0
10
11.1
20
10.1
11
24.9
21
10.1
0
LINE
8
0
10
24.9
20
10.1
11
24.9
21
23.9
0
LINE
8
0
10
24.9
20
23.9
11
11.1
21
23.9
0
LINE
8
0
10
11.1
20
23.9
11
11.1
21
10.1
0
LINE
8
0
10
11.1
20
27.1
11
24.9
21
27.1
0
LINE
8
0
10
24.9
20
27.1
11
24.9
21
40.9
0
LINE
8
0
10
24.9
20
40.9
11
11.1
21
40.9
0
LINE
8
0
10
11.1
20
40.9
11
11.1
21
27.1
0
LINE
8
0
10
29.1
20
5.1
11
42.9
21
5.1
0
LINE
8
0
10
42.9
20
5.1
11
42.9
21
18.9
0
LINE
8
0
10
42.9
20
18.9
11
29.1
21
18.9
0
LINE
8
0
10
29.1
20
18.9
11
29.1
21
5.1
0
LINE
8
0
10
29.1
20
22.1
11
42.9
21
22.1
0
LINE
8
0
10
42.9
20
22.1
11
42.9
21
35.9
0
LINE
8
0
10
42.9
20
35.9
11
29.1
21
35.9
0
LINE
8
0
10
29.1
20
35.9
11
29.1
21
22.1
0
LINE
8
0
10
29.1
20
39.1
11
42.9
21
39.1
0
LINE
8
0
10
42.9
20
39.1
11
42.9
21
52.9
0
LINE
8
0
10
42.9
20
52.9
11
29.1
21
52.9
0
LINE
8
0
10
29.1
20
52.9
11
29.1
21
39.1
0
LINE
8
0
10
47.1
20
10.1
11
60.9
21
10.1
0
LINE
8
0
10
60.9
20
10.1
11
60.9
21
23.9
0
LINE
8
0
10
60.9
20
23.9
11
47.1
21
23.9
0
LINE
8
0
10
47.1
20
23.9
11
47.1
21
10.1
0
LINE
8
0
10
47.1
20
27.1
11
60.9
21
27.1
0
LINE
8
0
10
60.9
20
27.1
11
60.9
21
40.9
0
LINE
8
0
10
60.9
20
40.9
11
47.1
21
40.9
0
LINE
8
0
10
47.1
20
40.9
11
47.1
21
27.1
0
LINE
8
0
10
47.1
20
44.1
11
60.9
21
44.1
0
LINE
8
0
10
60.9
20
44.1
11
60.9
21
57.9
0
LINE
8
0
10
60.9
20
57.9
11
47.1
21
57.9
0
LINE
8
0
10
47.1
20
57.9
11
47.1
21
44.1
0
LINE
8
0
10
65.1
20
4.1
11
78.9
21
4.1
0
LINE
8
0
10
78.9
20
4.1
11
78.9
21
17.9
0
LINE
8
0
10
78.9
20
17.9
11
65.1
21
17.9
0
LINE
8
0
10
65.1
20
17.9
11
65.1
21
4.1
0
LINE
8
0
10
65.1
20
21.1
11
78.9
21
21.1
0
LINE
8
0
10
78.9
20
21.1
11
78.9
21
34.9
0
LINE
8
0
10
78.9
20
34.9
11
65.1
21
34.9
0
LINE
8
0
10
65.1
20
34.9
11
65.1
21
21.1
0
LINE
8
0
10
65.1
20
38.1
11
78.9
21
38.1
0
LINE
8
0
10
78.9
20
38.1
11
78.9
21
51.9
0
LINE
8
0
10
78.9
20
51.9
11
65.1
21
51.9
0
LINE
8
0
10
65.1
20
51.9
11
65.1
21
38.1
0
LINE
8
0
10
83.1
20
4.1
11
96.9
21
4.1
0
LINE
8
0
10
96.9
20
4.1
11
96.9
21
17.9
0
LINE
8
0
10
96.9
20
17.9
11
83.1
21
17.9
0
LINE
8
0
10
83.1
20
17.9
11
83.1
21
4.1
0
LINE
8
0
10
83.1
20
21.1
11
96.9
21
21.1
0
LINE
8
0
10
96.9
20
21.1
11
96.9
21
34.9
0
LINE
8
0
10
96.9
20
34.9
11
83.1
21
34.9
0
LINE
8
0
10
83.1
20
34.9
11
83.1
21
21.1
0
LINE
8
0
10
83.1
20
38.1
11
96.9
21
38.1
0
LINE
8
0
10
96.9
20
38.1
11
96.9
21
51.9
0
LINE
8
0
10
96.9
20
51.9
11
83.1
21
51.9
0
LINE
8
0
10
83.1
20
51.9
11
83.1
21
38.1
0
LINE
8
0
10
76.1561819
20
-32.1239401
11
89.1239401
21
-36.8438181
0
LINE
8
0
10
89.1239401
20
-36.8438181
11
93.8438181
21
-23.8760599
0
LINE
8
0
10
93.8438181
20
-23.8760599
11
80.8760599
21
-19.1561819
0
LINE
8
0
10
80.8760599
20
-19.1561819
11
76.1561819
21
-32.1239401
0
LINE
8
0
10
81.9705243
20
-16.1491655
11
94.9382825
21
-20.8690435
0
LINE
8
0
10
94.9382825
20
-20.8690435
11
99.6581605
21
-7.9012853
0
LINE
8
0
10
99.6581605
20
-7.9012853
11
86.6904023
21
-3.1814073
0
LINE
8
0
10
86.6904023
20
-3.1814073
11
81.9705243
21
-16.1491655
0
LINE
8
0
10
93.0706491
20
-38.2803027
11
106.0384073
21
-43.0001807
0
LINE
8
0
10
106.0384073
20
-43.0001807
11
110.7582853
21
-30.0324225
0
LINE
8
0
10
110.7582853
20
-30.0324225
11
97.7905271
21
-25.3125445
0
LINE
8
0
10
97.7905271
20
-25.3125445
11
93.0706491
21
-38.2803027
0
LINE
8
0
10
98.8849915
20
-22.3055281
11
111.8527497
21
-27.0254061
0
LINE
8
0
10
111.8527497
20
-27.0254061
11
116.5726277
21
-14.0576479
0
LINE
8
0
10
116.5726277
20
-14.0576479
11
103.6048695
21
-9.3377699
0
LINE
8
0
10
103.6048695
20
-9.3377699
11
98.8849915
21
-22.3055281
0
ENDSEC
0
EOF