0
SECTION
2
HEADER
9
$INSUNITS
70
4
0
ENDSEC
0
SECTION
2
TABLES
0
TABLE
2
LTYPE
0
LTYPE
72
65
70
64
2
CONTINUOUS
3
______
73
0
40
0
0
ENDTAB
0
TABLE
2
LAYER
0
ENDTAB
0
ENDSEC
0
SECTION
2
ENTITIES
0
LINE
8
0
10
-6.9
20
-6.9
11
6.9
21
-6.9
0
LINE
8
0
10
6.9
20
-6.9
11
6.9
21
6.9
0
LINE
8
0
10
6.9
20
6.9
11
-6.9
21
6.9
0
LINE
8
0
10
-6.9
20
6.9
11
-6.9
21
-6.9
0
LINE
8
0
10
-6.9
20
11.1
11
6.9
21
11.1
0
LINE
8
0
10
6.9
20
11.1
11
6.9
21
24.9
0
LINE
8
0
10
6.9
20
24.9
11
-6.9
21
24.9
0
LINE
8
0
10
-6.9
20
24.9
11
-6.9
21
11.1
0
LINE
8
0
10
-6.9
20
29.1
11
6.9
21
29.1
0
LINE
8
0
10
6.9
20
29.1
11
6.9
21
42.9
0
LINE
8
0
10
6.9
20
42.9
11
-6.9
21
42.9
0
LINE
8
0
10
-6.9
20
42.9
11
-6.9
21
29.1
0
LINE
8
0
10
11.1
20
-6.9
11
24.9
21
-6.9
0
LINE
8
0
10
24.9
20
-6.9
11
24.9
21
6.9
0
LINE
8
0
10
24.9
20
6.9
11
11.1
21
6.9
0
LINE
8
0
10
11.1
20
6.9
11
11.1
21
-6.9
0
LINE
8
0
10
11.1
20
11.1
11
24.9
21
11.1
0
LINE
8
0
10
24.9
20
11.1
11
24.9
21
24.9
0
LINE
8
0
10
24.9
20
24.9
11
11.1
21
24.9
0
LINE
8
0
10
11.1
20
24.9
11
11.1
21
11.1
0
LINE
8
0
10
11.1
20
29.1
11
24.9
21
29.1
0
LINE
8
0
10
24.9
20
29.1
11
24.9
21
42.9
0
LINE
8
0
10
24.9
20
42.9
11
11.1
21
42.9
0
LINE
8
0
10
11.1
20
42.9
11
11.1
21
29.1
0
LINE
8
0
10
29.1
20
5.1
11
42.9
21
5.1
0
LINE
8
0
10
42.9
20
5.1
11
42.9
21
18.9
0
LINE
8
0
10
42.9
20
18.9
11
29.1
21
18.9
0
LINE
8
0
10
29.1
20
18.9
11
29.1
21
5.1
0
LINE
8
0
10
29.1
20
23.1
11
42.9
21
23.1
0
LINE
8
0
10
42.9
20
23.1
11
42.9
21
36.9
0
LINE
8
0
10
42.9
20
36.9
11
29.1
21
36.9
0
LINE
8
0
10
29.1
20
36.9
11
29.1
21
23.1
0
LINE
8
0
10
29.1
20
41.1
11
42.9
21
41.1
0
LINE
8
0
10
42.9
20
41.1
11
42.9
21
54.9
0
LINE
8
0
10
42.9
20
54.9
11
29.1
21
54.9
0
LINE
8
0
10
29.1
20
54.9
11
29.1
21
41.1
0
LINE
8
0
10
47.1
20
10.1
11
60.9
21
10.1
0
LINE
8
0
10
60.9
20
10.1
11
60.9
21
23.9
0
LINE
8
0
10
60.9
20
23.9
11
47.1
21
23.9
0
LINE
8
0
10
47.1
20
23.9
11
47.1
21
10.1
0
LINE
8
0
10
47.1
20
28.1
11
60.9
21
28.1
0
LINE
8
0
10
60.9
20
28.1
11
60.9
21
41.9
0
LINE
8
0
10
60.9
20
41.9
11
47.1
21
41.9
0
LINE
8
0
10
47.1
20
41.9
11
47.1
21
28.1
0
LINE
8
0
10
47.1
20
46.1
11
60.9
21
46.1
0
LINE
8
0
10
60.9
20
46.1
11
60.9
21
59.9
0
LINE
8
0
10
60.9
20
59.9
11
47.1
21
59.9
0
LINE
8
0
10
47.1
20
59.9
11
47.1
21
46.1
0
LINE
8
0
10
65.1
20
4.1
11
78.9
21
4.1
0
LINE
8
0
10
78.9
20
4.1
11
78.9
21
17.9
0
LINE
8
0
10
78.9
20
17.9
11
65.1
21
17.9
0
LINE
8
0
10
65.1
20
17.9
11
65.1
21
4.1
0
LINE
8
0
10
65.1
20
22.1
11
78.9
21
22.1
0
LINE
8
0
10
78.9
20
22.1
11
78.9
21
35.9
0
LINE
8
0
10
78.9
20
35.9
11
65.1
21
35.9
0
LINE
8
0
10
65.1
20
35.9
11
65.1
21
22.1
0
LINE
8
0
10
65.1
20
40.1
11
78.9
21
40.1
0
LINE
8
0
10
78.9
20
40.1
11
78.9
21
53.9
0
LINE
8
0
10
78.9
20
53.9
11
65.1
21
53.9
0
LINE
8
0
10
65.1
20
53.9
11
65.1
21
40.1
0
LINE
8
0
10
83.1
20
4.1
11
96.9
21
4.1
0
LINE
8
0
10
96.9
20
4.1
11
96.9
21
17.9
0
LINE
8
0
10
96.9
20
17.9
11
83.1
21
17.9
0
LINE
8
0
10
83.1
20
17.9
11
83.1
21
4.1
0
LINE
8
0
10
83.1
20
22.1
11
96.9
21
22.1
0
LINE
8
0
10
96.9
20
22.1
11
96.9
21
35.9
0
LINE
8
0
10
96.9
20
35.9
11
83.1
21
35.9
0
LINE
8
0
10
83.1
20
35.9
11
83.1
21
22.1
0
LINE
8
0
10
83.1
20
40.1
11
96.9
21
40.1
0
LINE
8
0
10
96.9
20
40.1
11
96.9
21
53.9
0
LINE
8
0
10
96.9
20
53.9
11
83.1
21
53.9
0
LINE
8
0
10
83.1
20
53.9
11
83.1
21
40.1
0
LINE
8
0
10
76.1561819
20
-32.1239401
11
89.1239401
21
-36.8438181
0
LINE
8
0
10
89.1239401
20
-36.8438181
11
93.8438181
21
-23.8760599
0
LINE
8
0
10
93.8438181
20
-23.8760599
11
80.8760599
21
-19.1561819
0
LINE
8
0
10
80.8760599
20
-19.1561819
11
76.1561819
21
-32.1239401
0
LINE
8
0
10
82.3125445
20
-15.2094729
11
95.2803027
21
-19.9293509
0
LINE
8
0
10
95.2803027
20
-19.9293509
11
100.0001807
21
-6.9615927
0
LINE
8
0
10
100.0001807
20
-6.9615927
11
87.0324225
21
-2.2417147
0
LINE
8
0
10
87.0324225
20
-2.2417147
11
82.3125445
21
-15.2094729
0
LINE
8
0
10
93.0706491
20
-38.2803027
11
106.0384073
21
-43.0001807
0
LINE
8
0
10
106.0384073
20
-43.0001807
11
110.7582853
21
-30.0324225
0
LINE
8
0
10
110.7582853
20
-30.0324225
11
97.7905271
21
-25.3125445
0
LINE
8
0
10
97.7905271
20
-25.3125445
11
93.0706491
21
-38.2803027
0
LINE
8
0
10
99.2270117
20
-21.3658355
11
112.1947699
21
-26.0857135
0
LINE
8
0
10
112.1947699
20
-26.0857135
11
116.9146479
21
-13.1179553
0
LINE
8
0
10
116.9146479
20
-13.1179553
11
103.9468897
21
-8.3980773
0
LINE
8
0
10
103.9468897
20
-8.3980773
11
99.2270117
21
-21.3658355
0
ENDSEC
0
EOF