0
SECTION
2
HEADER
9
$INSUNITS
70
4
0
ENDSEC
0
SECTION
2
TABLES
0
TABLE
2
LTYPE
0
LTYPE
72
65
70
64
2
CONTINUOUS
3
______
73
0
40
0
0
ENDTAB
0
TABLE
2
LAYER
0
ENDTAB
0
ENDSEC
0
SECTION
2
ENTITIES
0
LINE
8
0
10
-6.363961
20
11.0227038
11
11.0227038
21
6.363961
0
LINE
8
0
10
11.0227038
20
6.363961
11
6.363961
21
-11.0227038
0
LINE
8
0
10
6.363961
20
-11.0227038
11
-11.0227038
21
-6.363961
0
LINE
8
0
10
-11.0227038
20
-6.363961
11
-6.363961
21
11.0227038
0
LINE
8
0
10
-1.4463991
20
29.3752945
11
15.9402657
21
24.7165517
0
LINE
8
0
10
15.9402657
20
24.7165517
11
11.2815229
21
7.3298869
0
LINE
8
0
10
11.2815229
20
7.3298869
11
-6.1051419
21
11.9886297
0
LINE
8
0
10
-6.1051419
20
11.9886297
11
-1.4463991
21
29.3752945
0
LINE
8
0
10
3.4711628
20
47.7278853
11
20.8578276
21
43.0691425
0
LINE
8
0
10
20.8578276
20
43.0691425
11
16.1990848
21
25.6824777
0
LINE
8
0
10
16.1990848
20
25.6824777
11
-1.18758
21
30.3412205
0
LINE
8
0
10
-1.18758
20
30.3412205
11
3.4711628
21
47.7278853
0
LINE
8
0
10
11.9886297
20
6.1051419
11
29.3752945
21
1.4463991
0
LINE
8
0
10
29.3752945
20
1.4463991
11
24.7165517
21
-15.9402657
0
LINE
8
0
10
24.7165517
20
-15.9402657
11
7.3298869
21
-11.2815229
0
LINE
8
0
10
7.3298869
20
-11.2815229
11
11.9886297
21
6.1051419
0
LINE
8
0
10
16.9061916
20
24.4577326
11
34.2928564
21
19.7989898
0
LINE
8
0
10
34.2928564
20
19.7989898
11
29.6341136
21
2.412325
0
LINE
8
0
10
29.6341136
20
2.412325
11
12.2474488
21
7.0710678
0
LINE
8
0
10
12.2474488
20
7.0710678
11
16.9061916
21
24.4577326
0
LINE
8
0
10
21.8237535
20
42.8103234
11
39.2104183
21
38.1515806
0
LINE
8
0
10
39.2104183
20
38.1515806
11
34.5516755
21
20.7649158
0
LINE
8
0
10
34.5516755
20
20.7649158
11
17.1650107
21
25.4236586
0
LINE
8
0
10
17.1650107
20
25.4236586
11
21.8237535
21
42.8103234
0
LINE
8
0
10
33.4470489
20
12.77869
11
50.8337137
21
8.1199472
0
LINE
8
0
10
50.8337137
20
8.1199472
11
46.1749709
21
-9.2667176
0
LINE
8
0
10
46.1749709
20
-9.2667176
11
28.7883061
21
-4.6079748
0
LINE
8
0
10
28.7883061
20
-4.6079748
11
33.4470489
21
12.77869
0
LINE
8
0
10
38.3646108
20
31.1312807
11
55.7512756
21
26.4725379
0
LINE
8
0
10
55.7512756
20
26.4725379
11
51.0925328
21
9.0858731
0
LINE
8
0
10
51.0925328
20
9.0858731
11
33.705868
21
13.7446159
0
LINE
8
0
10
33.705868
20
13.7446159
11
38.3646108
21
31.1312807
0
LINE
8
0
10
43.2821727
20
49.4838715
11
60.6688375
21
44.8251287
0
LINE
8
0
10
60.6688375
20
44.8251287
11
56.0100947
21
27.4384639
0
LINE
8
0
10
56.0100947
20
27.4384639
11
38.6234299
21
32.0972067
0
LINE
8
0
10
38.6234299
20
32.0972067
11
43.2821727
21
49.4838715
0
LINE
8
0
10
53.0937349
20
12.6907573
11
70.4803997
21
8.0320145
0
LINE
8
0
10
70.4803997
20
8.0320145
11
65.8216569
21
-9.3546503
0
LINE
8
0
10
65.8216569
20
-9.3546503
11
48.4349921
21
-4.6959075
0
LINE
8
0
10
48.4349921
20
-4.6959075
11
53.0937349
21
12.6907573
0
LINE
8
0
10
58.0112968
20
31.043348
11
75.3979616
21
26.3846052
0
LINE
8
0
10
75.3979616
20
26.3846052
11
70.7392188
21
8.9979404
0
LINE
8
0
10
70.7392188
20
8.9979404
11
53.352554
21
13.6566832
0
LINE
8
0
10
53.352554
20
13.6566832
11
58.0112968
21
31.043348
0
LINE
8
0
10
62.9288587
20
49.3959387
11
80.3155235
21
44.7371959
0
LINE
8
0
10
80.3155235
20
44.7371959
11
75.6567807
21
27.3505311
0
LINE
8
0
10
75.6567807
20
27.3505311
11
58.2701159
21
32.0092739
0
LINE
8
0
10
58.2701159
20
32.0092739
11
62.9288587
21
49.3959387
0
LINE
8
0
10
69.8934113
20
1.9776404
11
87.2800761
21
-2.6811024
0
LINE
8
0
10
87.2800761
20
-2.6811024
11
82.6213333
21
-20.0677672
0
LINE
8
0
10
82.6213333
20
-20.0677672
11
65.2346685
21
-15.4090244
0
LINE
8
0
10
65.2346685
20
-15.4090244
11
69.8934113
21
1.9776404
0
LINE
8
0
10
74.8109732
20
20.3302312
11
92.197638
21
15.6714884
0
LINE
8
0
10
92.197638
20
15.6714884
11
87.5388952
21
-1.7151764
0
LINE
8
0
10
87.5388952
20
-1.7151764
11
70.1522304
21
2.9435664
0
LINE
8
0
10
70.1522304
20
2.9435664
11
74.8109732
21
20.3302312
0
LINE
8
0
10
79.7285351
20
38.6828219
11
97.1151999
21
34.0240791
0
LINE
8
0
10
97.1151999
20
34.0240791
11
92.4564571
21
16.6374143
0
LINE
8
0
10
92.4564571
20
16.6374143
11
75.0697923
21
21.2961571
0
LINE
8
0
10
75.0697923
20
21.2961571
11
79.7285351
21
38.6828219
0
LINE
8
0
10
88.2460019
20
-2.9399214
11
105.6326667
21
-7.5986642
0
LINE
8
0
10
105.6326667
20
-7.5986642
11
100.9739239
21
-24.985329
0
LINE
8
0
10
100.9739239
20
-24.985329
11
83.5872591
21
-20.3265862
0
LINE
8
0
10
83.5872591
20
-20.3265862
11
88.2460019
21
-2.9399214
0
LINE
8
0
10
93.1635638
20
15.4126693
11
110.5502286
21
10.7539265
0
LINE
8
0
10
110.5502286
20
10.7539265
11
105.8914858
21
-6.6327383
0
LINE
8
0
10
105.8914858
20
-6.6327383
11
88.504821
21
-1.9739955
0
LINE
8
0
10
88.504821
20
-1.9739955
11
93.1635638
21
15.4126693
0
LINE
8
0
10
98.0811257
20
33.76526
11
115.4677905
21
29.1065172
0
LINE
8
0
10
115.4677905
20
29.1065172
11
110.8090477
21
11.7198524
0
LINE
8
0
10
110.8090477
20
11.7198524
11
93.4223829
21
16.3785952
0
LINE
8
0
10
93.4223829
20
16.3785952
11
98.0811257
21
33.76526
0
LINE
8
0
10
76.5669593
20
-19.4807788
11
93.9536241
21
-24.1395216
0
LINE
8
0
10
93.9536241
20
-24.1395216
11
89.2948813
21
-41.5261864
0
LINE
8
0
10
89.2948813
20
-41.5261864
11
71.9082165
21
-36.8674436
0
LINE
8
0
10
71.9082165
20
-36.8674436
11
76.5669593
21
-19.4807788
0
LINE
8
0
10
104.0650372
20
-30.3667248
11
117.2294039
21
-42.6426953
0
LINE
8
0
10
117.2294039
20
-42.6426953
11
104.9534334
21
-55.807062
0
LINE
8
0
10
104.9534334
20
-55.807062
11
91.7890667
21
-43.5310915
0
LINE
8
0
10
91.7890667
20
-43.5310915
11
104.0650372
21
-30.3667248
0
LINE
8
0
10
124.1467747
20
-52.29509
11
130.0070015
21
-69.3144244
0
LINE
8
0
10
130.0070015
20
-69.3144244
11
112.9876671
21
-75.1746512
0
LINE
8
0
10
112.9876671
20
-75.1746512
11
107.1274403
21
-58.1553168
0
LINE
8
0
10
107.1274403
20
-58.1553168
11
124.1467747
21
-52.29509
0
LINE
8
0
10
259.2705792
20
6.363961
11
276.657244
21
11.0227038
0
LINE
8
0
10
276.657244
20
11.0227038
11
281.3159868
21
-6.363961
0
LINE
8
0
10
281.3159868
20
-6.363961
11
263.929322
21
-11.0227038
0
LINE
8
0
10
263.929322
20
-11.0227038
11
259.2705792
21
6.363961
0
LINE
8
0
10
254.3530173
20
24.7165517
11
271.7396821
21
29.3752945
0
LINE
8
0
10
271.7396821
20
29.3752945
11
276.3984249
21
11.9886297
0
LINE
8
0
10
276.3984249
20
11.9886297
11
259.0117601
21
7.3298869
0
LINE
8
0
10
259.0117601
20
7.3298869
11
254.3530173
21
24.7165517
0
LINE
8
0
10
249.4354554
20
43.0691425
11
266.8221202
21
47.7278853
0
LINE
8
0
10
266.8221202
20
47.7278853
11
271.480863
21
30.3412205
0
LINE
8
0
10
271.480863
20
30.3412205
11
254.0941982
21
25.6824777
0
LINE
8
0
10
254.0941982
20
25.6824777
11
249.4354554
21
43.0691425
0
LINE
8
0
10
240.9179885
20
1.4463991
11
258.3046533
21
6.1051419
0
LINE
8
0
10
258.3046533
20
6.1051419
11
262.9633961
21
-11.2815229
0
LINE
8
0
10
262.9633961
20
-11.2815229
11
245.5767313
21
-15.9402657
0
LINE
8
0
10
245.5767313
20
-15.9402657
11
240.9179885
21
1.4463991
0
LINE
8
0
10
236.0004266
20
19.7989898
11
253.3870914
21
24.4577326
0
LINE
8
0
10
253.3870914
20
24.4577326
11
258.0458342
21
7.0710678
0
LINE
8
0
10
258.0458342
20
7.0710678
11
240.6591694
21
2.412325
0
LINE
8
0
10
240.6591694
20
2.412325
11
236.0004266
21
19.7989898
0
LINE
8
0
10
231.0828647
20
38.1515806
11
248.4695295
21
42.8103234
0
LINE
8
0
10
248.4695295
20
42.8103234
11
253.1282723
21
25.4236586
0
LINE
8
0
10
253.1282723
20
25.4236586
11
235.7416075
21
20.7649158
0
LINE
8
0
10
235.7416075
20
20.7649158
11
231.0828647
21
38.1515806
0
LINE
8
0
10
219.4595693
20
8.1199472
11
236.8462341
21
12.77869
0
LINE
8
0
10
236.8462341
20
12.77869
11
241.5049769
21
-4.6079748
0
LINE
8
0
10
241.5049769
20
-4.6079748
11
224.1183121
21
-9.2667176
0
LINE
8
0
10
224.1183121
20
-9.2667176
11
219.4595693
21
8.1199472
0
LINE
8
0
10
214.5420074
20
26.4725379
11
231.9286722
21
31.1312807
0
LINE
8
0
10
231.9286722
20
31.1312807
11
236.587415
21
13.7446159
0
LINE
8
0
10
236.587415
20
13.7446159
11
219.2007502
21
9.0858731
0
LINE
8
0
10
219.2007502
20
9.0858731
11
214.5420074
21
26.4725379
0
LINE
8
0
10
209.6244455
20
44.8251287
11
227.0111103
21
49.4838715
0
LINE
8
0
10
227.0111103
20
49.4838715
11
231.6698531
21
32.0972067
0
LINE
8
0
10
231.6698531
20
32.0972067
11
214.2831883
21
27.4384639
0
LINE
8
0
10
214.2831883
20
27.4384639
11
209.6244455
21
44.8251287
0
LINE
8
0
10
199.8128833
20
8.0320145
11
217.1995481
21
12.6907573
0
LINE
8
0
10
217.1995481
20
12.6907573
11
221.8582909
21
-4.6959075
0
LINE
8
0
10
221.8582909
20
-4.6959075
11
204.4716261
21
-9.3546503
0
LINE
8
0
10
204.4716261
20
-9.3546503
11
199.8128833
21
8.0320145
0
LINE
8
0
10
194.8953214
20
26.3846052
11
212.2819862
21
31.043348
0
LINE
8
0
10
212.2819862
20
31.043348
11
216.940729
21
13.6566832
0
LINE
8
0
10
216.940729
20
13.6566832
11
199.5540642
21
8.9979404
0
LINE
8
0
10
199.5540642
20
8.9979404
11
194.8953214
21
26.3846052
0
LINE
8
0
10
189.9777595
20
44.7371959
11
207.3644243
21
49.3959387
0
LINE
8
0
10
207.3644243
20
49.3959387
11
212.0231671
21
32.0092739
0
LINE
8
0
10
212.0231671
20
32.0092739
11
194.6365023
21
27.3505311
0
LINE
8
0
10
194.6365023
20
27.3505311
11
189.9777595
21
44.7371959
0
LINE
8
0
10
183.0132069
20
-2.6811024
11
200.3998717
21
1.9776404
0
LINE
8
0
10
200.3998717
20
1.9776404
11
205.0586145
21
-15.4090244
0
LINE
8
0
10
205.0586145
20
-15.4090244
11
187.6719497
21
-20.0677672
0
LINE
8
0
10
187.6719497
20
-20.0677672
11
183.0132069
21
-2.6811024
0
LINE
8
0
10
178.095645
20
15.6714884
11
195.4823098
21
20.3302312
0
LINE
8
0
10
195.4823098
20
20.3302312
11
200.1410526
21
2.9435664
0
LINE
8
0
10
200.1410526
20
2.9435664
11
182.7543878
21
-1.7151764
0
LINE
8
0
10
182.7543878
20
-1.7151764
11
178.095645
21
15.6714884
0
LINE
8
0
10
173.1780831
20
34.0240791
11
190.5647479
21
38.6828219
0
LINE
8
0
10
190.5647479
20
38.6828219
11
195.2234907
21
21.2961571
0
LINE
8
0
10
195.2234907
20
21.2961571
11
177.8368259
21
16.6374143
0
LINE
8
0
10
177.8368259
20
16.6374143
11
173.1780831
21
34.0240791
0
LINE
8
0
10
164.6606163
20
-7.5986642
11
182.0472811
21
-2.9399214
0
LINE
8
0
10
182.0472811
20
-2.9399214
11
186.7060239
21
-20.3265862
0
LINE
8
0
10
186.7060239
20
-20.3265862
11
169.3193591
21
-24.985329
0
LINE
8
0
10
169.3193591
20
-24.985329
11
164.6606163
21
-7.5986642
0
LINE
8
0
10
159.7430544
20
10.7539265
11
177.1297192
21
15.4126693
0
LINE
8
0
10
177.1297192
20
15.4126693
11
181.788462
21
-1.9739955
0
LINE
8
0
10
181.788462
20
-1.9739955
11
164.4017972
21
-6.6327383
0
LINE
8
0
10
164.4017972
20
-6.6327383
11
159.7430544
21
10.7539265
0
LINE
8
0
10
154.8254925
20
29.1065172
11
172.2121573
21
33.76526
0
LINE
8
0
10
172.2121573
20
33.76526
11
176.8709001
21
16.3785952
0
LINE
8
0
10
176.8709001
20
16.3785952
11
159.4842353
21
11.7198524
0
LINE
8
0
10
159.4842353
20
11.7198524
11
154.8254925
21
29.1065172
0
LINE
8
0
10
176.3396589
20
-24.1395216
11
193.7263237
21
-19.4807788
0
LINE
8
0
10
193.7263237
20
-19.4807788
11
198.3850665
21
-36.8674436
0
LINE
8
0
10
198.3850665
20
-36.8674436
11
180.9984017
21
-41.5261864
0
LINE
8
0
10
180.9984017
20
-41.5261864
11
176.3396589
21
-24.1395216
0
LINE
8
0
10
153.0638791
20
-42.6426953
11
166.2282458
21
-30.3667248
0
LINE
8
0
10
166.2282458
20
-30.3667248
11
178.5042163
21
-43.5310915
0
LINE
8
0
10
178.5042163
20
-43.5310915
11
165.3398496
21
-55.807062
0
LINE
8
0
10
165.3398496
20
-55.807062
11
153.0638791
21
-42.6426953
0
LINE
8
0
10
140.2862815
20
-69.3144244
11
146.1465083
21
-52.29509
0
LINE
8
0
10
146.1465083
20
-52.29509
11
163.1658427
21
-58.1553168
0
LINE
8
0
10
163.1658427
20
-58.1553168
11
157.3056159
21
-75.1746512
0
LINE
8
0
10
157.3056159
20
-75.1746512
11
140.2862815
21
-69.3144244
0
ENDSEC
0
EOF