<svg width="292.339mm" height="124.659mm" viewBox="0 0 292.339 124.659" xmlns="http://www.w3.org/2000/svg"><g id="svgGroup" stroke-linecap="round" fill-rule="evenodd" font-size="9pt" stroke="#000" stroke-width="0.25mm" fill="none" style="stroke:#000;stroke-width:0.25mm;fill:none"><path d="M 115.088 79.851 L 128.252 92.127 L 115.976 105.291 L 102.812 93.015 L 115.088 79.851 Z M 164.087 92.127 L 177.251 79.851 L 189.527 93.015 L 176.363 105.291 L 164.087 92.127 Z M 135.169 101.779 L 141.03 118.798 L 124.01 124.659 L 118.15 107.639 L 135.169 101.779 Z M 151.309 118.798 L 157.169 101.779 L 174.189 107.639 L 168.328 124.659 L 151.309 118.798 Z M 32.846 6.674 L 50.233 11.332 L 45.574 28.719 L 28.188 24.06 L 32.846 6.674 Z M 73.952 0.088 L 91.338 4.747 L 86.679 22.133 L 69.293 17.475 L 73.952 0.088 Z M 99.269 52.424 L 116.655 57.083 L 111.997 74.469 L 94.61 69.81 L 99.269 52.424 Z M 87.59 68.965 L 104.976 73.623 L 100.318 91.01 L 82.931 86.351 L 87.59 68.965 Z M 27.929 25.026 L 45.316 29.685 L 40.657 47.072 L 23.27 42.413 L 27.929 25.026 Z M 44.47 36.705 L 61.856 41.364 L 57.198 58.751 L 39.811 54.092 L 44.47 36.705 Z M 49.387 18.353 L 66.774 23.011 L 62.115 40.398 L 44.729 35.739 L 49.387 18.353 Z M 69.034 18.441 L 86.421 23.099 L 81.762 40.486 L 64.375 35.827 L 69.034 18.441 Z M 80.916 47.506 L 98.303 52.165 L 93.644 69.552 L 76.257 64.893 L 80.916 47.506 Z M 85.834 29.154 L 103.22 33.812 L 98.562 51.199 L 81.175 46.54 L 85.834 29.154 Z M 90.751 10.801 L 108.138 15.46 L 103.479 32.846 L 86.092 28.188 L 90.751 10.801 Z M 104.186 34.071 L 121.573 38.73 L 116.914 56.117 L 99.528 51.458 L 104.186 34.071 Z M 109.104 15.719 L 126.49 20.377 L 121.832 37.764 L 104.445 33.105 L 109.104 15.719 Z M 187.362 73.623 L 204.749 68.965 L 209.408 86.351 L 192.021 91.01 L 187.362 73.623 Z M 4.659 38.461 L 22.045 43.12 L 17.387 60.507 L 0 55.848 L 4.659 38.461 Z M 9.576 20.109 L 26.963 24.767 L 22.304 42.154 L 4.918 37.495 L 9.576 20.109 Z M 14.494 1.756 L 31.881 6.415 L 27.222 23.801 L 9.835 19.143 L 14.494 1.756 Z M 23.011 43.379 L 40.398 48.037 L 35.739 65.424 L 18.353 60.765 L 23.011 43.379 Z M 54.305 0 L 71.692 4.659 L 67.033 22.045 L 49.646 17.387 L 54.305 0 Z M 64.116 36.793 L 81.503 41.452 L 76.844 58.839 L 59.458 54.18 L 64.116 36.793 Z M 270.293 43.12 L 287.68 38.461 L 292.339 55.848 L 274.952 60.507 L 270.293 43.12 Z M 265.376 24.767 L 282.762 20.109 L 287.421 37.495 L 270.034 42.154 L 265.376 24.767 Z M 247.023 29.685 L 264.41 25.026 L 269.069 42.413 L 251.682 47.072 L 247.023 29.685 Z M 242.106 11.332 L 259.492 6.674 L 264.151 24.06 L 246.764 28.719 L 242.106 11.332 Z M 210.836 41.452 L 228.222 36.793 L 232.881 54.18 L 215.494 58.839 L 210.836 41.452 Z M 175.683 57.083 L 193.07 52.424 L 197.729 69.81 L 180.342 74.469 L 175.683 57.083 Z M 260.458 6.415 L 277.845 1.756 L 282.504 19.143 L 265.117 23.801 L 260.458 6.415 Z M 251.941 48.037 L 269.327 43.379 L 273.986 60.765 L 256.599 65.424 L 251.941 48.037 Z M 230.482 41.364 L 247.869 36.705 L 252.528 54.092 L 235.141 58.751 L 230.482 41.364 Z M 225.565 23.011 L 242.951 18.353 L 247.61 35.739 L 230.223 40.398 L 225.565 23.011 Z M 220.647 4.659 L 238.034 0 L 242.693 17.387 L 225.306 22.045 L 220.647 4.659 Z M 205.918 23.099 L 223.305 18.441 L 227.963 35.827 L 210.577 40.486 L 205.918 23.099 Z M 201 4.747 L 218.387 0.088 L 223.046 17.475 L 205.659 22.133 L 201 4.747 Z M 194.036 52.165 L 211.423 47.506 L 216.081 64.893 L 198.695 69.552 L 194.036 52.165 Z M 184.201 15.46 L 201.587 10.801 L 206.246 28.188 L 188.86 32.846 L 184.201 15.46 Z M 170.766 38.73 L 188.152 34.071 L 192.811 51.458 L 175.425 56.117 L 170.766 38.73 Z M 189.118 33.812 L 206.505 29.154 L 211.164 46.54 L 193.777 51.199 L 189.118 33.812 Z M 165.848 20.377 L 183.235 15.719 L 187.894 33.105 L 170.507 37.764 L 165.848 20.377 Z" vector-effect="non-scaling-stroke"/></g></svg>